Patient4_TMGait_0pt5_01_left_39_EMG.mot
version=1
nRows=37
nColumns=33
inDegrees=no
endheader
time	1LAddLong	2LGlutMax	3LGlutMed	4LIliopsoas	5LSemiMemb	6LBicFemLong	7LRecFem	8LVastMed	9LVastLat	10LGasMed	11LTibAnt	12lTibPost	13LPeroneusLong	14LSol	15LExtDigLong	16LFlexDigLong	17RAddLong	18RGlutMax	19RGlutMed	20RIliopsoas	21RSemiMemb	22RBicFemLong	23RRecFem	24RVastMed	25RVastLat	26RGasMed	27RTibAnt	28RTibPost	29RPeroneusLong	30RSol	31RExtDigLong	32RFlexDigLong
51.96	0.010681	0.009613	-0.054932	0.001678	0.010223	0.000153	0.13412	0.00473	0.20508	-0.012207	-0.002594	0.007172	0.097046	-0.041199	-0.060425	-0.002136	0.015106	-0.033417	0.28137	-0.066376	0.034332	-0.1181	0.54123	0.030518	0.38116	0.01236	0.62164	-0.018768	0.06897	-0.37094	-0.001526	-0.005188
51.961	0.004578	0.031586	-0.078735	-0.002289	-0.000305	0.01297	0.11627	0.000153	0.21179	0.00824	0.14771	0.011749	0.051727	-0.046844	0.1651	-0.007935	0.016937	-0.034485	0.41672	-0.050659	0.013428	-0.097351	0.5629	-0.19806	0.20142	0.013275	0.77118	-0.007019	0.17425	-0.17288	-0.006714	-0.005951
51.962	0.00412	0.059357	-0.076447	0.012817	0.005341	0.010223	0.13428	0.001373	0.21942	-0.019379	0.14648	0.003357	0.061188	-0.021362	0.17258	-0.001984	0.005188	-0.013885	0.61645	-0.043793	-0.015106	-0.06546	0.43594	-0.050812	0.34103	-0.002289	0.41596	-0.003967	0.13596	0.18753	-0.007172	0.005951
51.963	-0.00061	0.094299	-0.055084	0.007629	0.001831	0.009308	0.11475	-0.000458	0.22492	-0.024719	0.084076	0.009155	0.084534	0.031433	-0.12787	0.001831	0.002441	0.0354	0.32867	-0.025635	-0.015259	-0.068054	-0.060272	0.14069	0.457	0.016632	-0.19745	-0.006866	-0.066071	0.22781	-0.010376	0.007477
51.964	0.001526	0.10056	-0.057526	0.00473	0.00473	0.009308	0.10193	0.001526	0.22003	0.000763	0.10635	0.008087	0.079498	0.052795	-0.14206	0.001831	-0.002899	0.015411	0.094299	-0.030365	-0.033569	-0.10895	-0.7898	0.13687	0.2713	0.014954	-0.59097	-0.001221	-0.080261	0.030518	-0.009766	-0.000305
51.965	0.005035	0.12665	-0.031128	0.00946	-0.014343	-0.022278	0.098724	0.003662	0.2243	0.007019	0.085449	0.003815	0.10147	0.055084	-0.041809	0.009918	0.027313	-0.009003	0.10757	-0.013733	-0.04425	-0.13031	-0.95245	0.1503	0.23407	-0.000305	-0.22964	-0.002594	0.02533	-0.020447	-0.006409	0.005646
51.966	0.001678	0.1152	-0.034332	0.015259	-0.024872	-0.034332	0.07843	0.006256	0.21515	0	0.043182	0.011902	0.11383	0.047913	0.096283	-0.000916	0.012207	0.008545	0.11581	-0.032501	-0.045624	-0.096588	-0.63248	0.23819	-0.15411	-0.001221	-0.19302	-0.006409	-0.010681	0.14832	0	0.001678
51.967	0.00885	0.12878	-0.052948	0.027771	-0.01236	-0.036011	0.090637	0.002899	0.22018	-0.014038	0.03067	0.012665	0.12329	-0.004883	-0.030823	0.005341	0.024414	-0.016785	0.20859	-0.028534	-0.036926	-0.10574	-0.07019	0.112	-0.44601	0.01297	-0.48447	-0.000916	-0.027008	0.2124	-0.001831	-0.003357
51.968	0.008545	0.18005	-0.042267	0.018158	-0.00061	-0.031128	0.10315	0.007324	0.21301	-0.020294	0.01358	0.007935	0.10635	-0.079803	0.010529	-0.002136	0.027313	-0.000763	0.093994	-0.013275	-0.063171	-0.11261	0.13504	0.065002	-0.32105	0.012054	-0.5368	-0.004272	-0.031891	0.084839	-0.004578	-0.000305
51.969	0.009613	0.17578	-0.016327	0.012054	0.001984	-0.012207	0.082703	0.002289	0.2063	-0.008698	-0.014038	0.011902	0.091095	-0.061951	-0.11246	-0.001984	0.024872	0.068054	-0.066223	0.017395	-0.15305	-0.10284	0.093994	-0.068665	-0.16281	0.023346	-0.55435	-0.003967	0.053406	-0.25009	-0.003967	0.000305
51.97	0.005341	0.18539	-0.05722	0.005646	0.005798	-0.000458	0.075836	0.002136	0.20218	-0.017395	-0.005951	0.004883	0.076752	-0.044861	0.10529	-0.003815	0.020447	0.032806	-0.15457	0.063782	-0.20462	-0.097046	0.12665	-0.12375	-0.087128	0.015106	-0.22903	-0.006409	-0.058746	-0.37842	-0.003662	0.001221
51.971	0.014954	0.16144	-0.097961	0.006104	-0.007019	0.00824	0.077209	-0.002747	0.19379	-0.007172	0.023346	-0.003204	0.066528	-0.028229	0.26703	-0.004272	0.030518	0.066071	-0.037079	0.071106	-0.095825	-0.071411	0.17532	-0.11353	-0.057373	0.007782	0.5574	0	-0.036774	-0.42221	-0.007172	-0.00351
51.972	0.00885	0.17166	-0.093842	-0.00946	-0.020447	-0.009155	0.084381	0.002441	0.19989	-0.002136	0.094452	0.006409	0.035553	-0.050201	-0.085449	0.002289	0.026245	-0.010529	0.1416	0.063782	0.080872	-0.11078	0.14725	-0.036011	-0.032806	0.006409	1.0255	-0.011749	0.15488	-0.41916	-0.001984	0.001678
51.973	0.014038	0.19501	-0.076904	-0.002899	-0.059509	-0.032654	0.075378	0.001831	0.20371	-0.036011	0.13825	0.019226	0.084686	-0.021973	0.35355	0.005646	0.013733	-0.024719	0.82687	0.027618	0.055542	-0.050659	0.013275	-0.056152	-0.024719	0.009308	-0.035706	-0.008392	0.14877	-0.31342	-0.001831	-0.010223
51.974	0.020447	0.24475	-0.081177	-0.014496	-0.02533	-0.089111	0.071869	-0.002594	0.19073	-0.03479	0.12482	0.009155	0.11276	0.06073	0.050812	0.000916	0.00473	-0.001678	0.73029	0.030518	0.031128	0.003052	-0.077667	-0.092621	0.022278	0.00473	-0.22659	-0.011292	-0.014801	0.17502	-0.003052	-0.006104
51.975	0.006104	0.23697	-0.076599	-0.004272	0.016327	-0.057068	0.07782	0.000763	0.17716	-0.040588	-0.079041	0.00412	0.12558	0.15778	0.25177	-0.001068	0.018921	-0.015411	0.10956	0.05127	0.10605	0.008698	0.0383	-0.049286	0.044098	0.013733	0.12665	-0.006714	-0.074921	0.30579	0.000458	-0.002747
51.976	0.01236	0.26367	-0.0383	-0.008698	0.023193	-0.045929	0.076447	-0.001678	0.18967	-0.054474	-0.098572	0.009766	0.1416	0.13153	0.63995	0.003204	0.01358	-0.090942	0.12268	0.004883	0.11093	0.003967	0.098267	-0.06546	0.035553	-0.004883	-0.28381	-0.016174	-0.059052	0.16434	-0.00061	-0.010376
51.977	0.006104	0.27222	-0.045776	0.003662	0.01358	-0.031433	0.075378	0.003662	0.18066	-0.045166	0.054474	0.007019	0.11017	0.085754	-0.61844	-0.002594	0.00061	-0.040741	0.392	-0.038452	-0.020905	0.021667	0.057983	-0.058136	0.094147	-0.004272	-0.24704	-0.01358	0.048981	0.019989	-0.001984	-0.012054
51.978	0.005646	0.26245	-0.05188	-0.003052	0.011902	-0.033569	0.072479	-0.001068	0.1767	-0.027313	0.038605	0.012817	0.10742	0.053711	-0.66055	0.00885	-0.017853	-0.13351	-0.09201	-0.003815	-0.16724	0.015259	0.014801	-0.066986	0.12207	-0.008392	0.11932	-0.018158	0.037689	-0.084534	-0.00885	-0.007172
51.979	0.007324	0.23651	-0.044098	0.018311	0.004578	-0.028839	0.058289	-0.009003	0.18616	-0.010071	-0.14984	0.002289	0.11353	-0.00824	-0.49988	-0.00351	-0.013428	-0.1474	0.19806	0.072327	-0.07309	-0.051117	-0.022125	-0.035248	0.083923	-0.00061	-0.79086	-0.001068	0.24658	0.088959	-0.006561	-0.01236
51.98	0.009766	0.21713	-0.031738	0.028076	0.001831	-0.051727	0.067291	0.000153	0.18173	0.001831	-0.1535	0.007172	0.092926	-0.040283	-0.33646	-0.00412	-0.00885	-0.23392	0.27161	0.063629	-0.084229	-0.057526	-0.026855	-0.11154	0.02594	0.005035	-1.3042	0.007782	0.33463	0.1767	-0.00351	-0.003662
51.981	0.011139	0.18753	-0.045013	0.028229	0.002136	-0.048218	0.049286	-0.011139	0.18463	-0.016174	-0.079346	0.016174	0.13092	-0.087738	-0.18295	-0.018616	-0.002594	-0.18738	0.16022	0.056152	-0.10559	-0.069427	0.035248	0.007935	-0.007782	-0.000916	-1.0551	0.002441	0.24979	0.22842	-0.002441	0.001984
51.982	0.009308	0.22964	-0.041809	0.01297	-0.008392	-0.045319	0.028229	-0.003204	0.17761	-0.010681	-0.059662	0.009918	0.15305	-0.25482	-0.08667	0.007172	-0.003052	-0.1535	-0.24262	0.045929	0.019073	-0.087738	0.049744	0.071869	-0.037689	-0.024414	-0.13138	0.006256	0.008545	0.14664	0.000153	-0.015717
51.983	0.011444	0.27588	-0.068207	-0.013123	0.000305	-0.033875	0.032349	-0.019379	0.17395	0.006714	-0.01709	0.010986	0.13489	-0.38605	0.033264	-0.003204	-0.011292	-0.093079	-0.1506	0.018768	0.049591	-0.022125	0.083313	0.15121	-0.04303	-0.043335	0.90714	0.003052	-0.075073	-0.3772	-0.000763	-0.00946
51.984	0.007324	0.29862	-0.077972	0.001984	0.010071	-0.024261	0.061035	0.007477	0.16998	0.007782	0.019684	0.00885	0.097961	-0.31052	0.12497	-0.016937	-0.009918	-0.061798	-0.18356	-0.02533	0.03891	0.02121	0.080109	0.17303	-0.023041	-0.042267	1.2508	0.001068	-0.000458	-0.86075	-0.00824	-0.015259
51.985	0.00351	0.25665	-0.033417	-0.006714	0.011292	-0.032196	0.033264	-0.023499	0.18036	-0.00412	0.024719	0.006561	0.077515	-0.33081	0.14603	0	0.00473	-0.13321	0.31326	-0.023956	0.034637	-0.046082	0.17593	0.002441	-0.002441	-0.029144	0.96619	-0.010529	0.055695	-0.8606	0.003052	-0.007629
51.986	0.008392	0.23682	-0.00946	0.001526	0.006104	-0.04364	0.018921	-0.001984	0.16373	-0.00824	0.015717	0.014038	0.079651	-0.38513	0.14343	-0.007629	0.019989	-0.13916	0.58518	-0.013885	0.015259	0.020599	0.24185	-0.085754	0.01709	-0.015259	0.72189	-0.014801	0.13016	-0.090637	-0.006561	-0.000305
51.987	0.01297	0.25177	0.005341	0.009308	0.003204	-0.046539	0.041809	-0.005341	0.15595	-0.01297	0.01297	0.022583	0.10574	-0.32989	0.1268	-0.011749	-0.005493	-0.16769	0.47379	-0.04715	0.024109	-0.032043	-0.037842	0.10605	0.038605	0.012054	0.19836	-0.011292	-0.034332	0.31921	-0.001373	0
51.988	0.01297	0.26733	-0.032196	0.018158	0.003967	-0.049133	0.033264	0.001831	0.14496	-0.020447	0.016785	0.002289	0.10529	-0.16052	0.112	-0.015259	-0.007935	-0.23148	0.51941	0.001526	0.012207	-0.28	-0.22659	0.07431	0.007324	-0.030823	-0.345	-0.014191	-0.12924	0.33035	-0.002441	-0.00061
51.989	0.002747	0.24826	-0.038452	0.021973	0.014038	-0.086975	0.046539	-0.014191	0.13473	-0.028992	0.05722	0.013275	0.081329	0.065002	0.092163	-0.005951	0.01358	-0.29297	0.2449	0.03479	-0.025635	-0.37857	0.036163	-0.084991	-0.011902	-0.052185	-0.7193	0.000916	-0.04715	0.40039	-0.003967	-0.007782
51.99	0.010681	0.26504	-0.054932	0.014954	0.009308	-0.088959	0.036926	-0.007935	0.12863	-0.041962	0.088043	0.015564	0.070953	0.10513	0.076599	-0.001984	0.019073	-0.25406	0.40756	0.046082	-0.036926	-0.40298	0.40802	-0.18509	-0.10529	-0.070953	-0.57938	-0.002747	0.11932	0.3006	-0.005798	-0.002136
51.991	0.011597	0.27283	-0.041656	0.010681	-0.008545	-0.068512	0.039215	-0.006866	0.1329	-0.041046	0.078583	0.009766	0.052338	0.08194	0.050201	0.003204	0.011292	-0.21255	0.43655	0.03418	-0.067596	-0.40497	0.46997	-0.30136	-0.18417	0.001526	-0.35828	-0.010071	0.14664	-0.049286	-0.003204	-0.001526
51.992	0.011902	0.26962	-0.010529	-0.002747	-0.022583	-0.099335	0.03952	-0.012817	0.12146	-0.055695	0.013733	0.01297	0.071259	0.001831	0.037994	-0.000305	0.00473	-0.16968	0.47287	-0.015259	-0.068512	-0.2298	0.43869	-0.24139	-0.20874	0.06485	-0.17716	-0.007019	0.088806	-0.22018	-0.004272	-0.013733
51.993	0.008087	0.24307	-0.046539	0.016022	-0.028839	-0.079193	0.017548	-0.00946	0.12756	-0.049133	-0.084991	0.001678	0.10834	0.049133	0.029449	-0.011444	-0.001984	-0.1915	0.27847	-0.050812	0.011597	-0.14435	0.23636	-0.12833	0.049896	0.097198	-0.078583	-0.003357	0.048065	-0.018463	-0.011749	-0.002899
51.994	0.01297	0.24658	-0.040741	0.020905	0.022583	-0.10376	0.022736	-0.016785	0.10834	-0.040741	-0.044098	0.013275	0.11414	0.075226	0.044861	-0.029297	-0.011139	-0.16144	-0.056915	-0.067749	-0.027161	-0.046539	0.053101	-0.032043	0.52612	0.076141	-0.14587	-0.00885	0.040894	0.41916	-0.002747	-0.019226
51.995	0.011749	0.23377	-0.051575	0.007019	0.057068	-0.084534	0.024261	-0.011902	0.11353	-0.005493	-0.020905	0.005341	0.12375	0.004272	0.14358	-0.013885	-0.007935	-0.08316	-0.25497	-0.10346	-0.081024	0.21149	-0.050201	0.085754	0.72815	0.029297	-0.13687	0.000916	-0.046082	0.82947	-0.00412	-0.01709
51.996	0.006256	0.23956	-0.048523	0.000153	0.039978	-0.072174	0.029449	-0.010223	0.10468	0.016022	-0.019684	0.009308	0.12131	-0.003662	0.061646	-0.006409	-0.011444	-0.016327	-0.23514	-0.11337	-0.027161	0.16678	-0.13702	0.15411	0.76782	-0.019379	-0.019989	0.012817	-0.10239	0.80719	-0.001373	-0.010223
